<?xml version="1.0" encoding="utf-8"?>
<!-- Generator: Adobe Illustrator 27.0.1, SVG Export Plug-In . SVG Version: 6.00 Build 0)  -->
<svg version="1.1" id="Layer_1" xmlns="http://www.w3.org/2000/svg" xmlns:xlink="http://www.w3.org/1999/xlink" x="0px" y="0px"
	 viewBox="0 0 1440 320" style="enable-background:new 0 0 1440 320;" xml:space="preserve">
<path d="M0,96l40-16c40-16,120-48,200-21.3C320,85,400,171,480,186.7C560,203,640,149,720,160s160,85,240,106.7
	c80,21.3,160-10.7,240-64C1280,149,1360,75,1400,37.3L1440,0v320h-40c-40,0-120,0-200,0s-160,0-240,0s-160,0-240,0s-160,0-240,0
	s-160,0-240,0s-160,0-200,0H0V96z"/>
</svg>
